<svg xmlns="http://www.w3.org/2000/svg" width="1" height="1" fill="none" viewBox="0 0 18 18" preserveAspectRatio="xMidYMid meet" class="icon"><path fill="currentColor" d="M9 17.474a8.15 8.15 0 0 1-3.27-.664 8.7 8.7 0 0 1-2.698-1.835 8.7 8.7 0 0 1-1.835-2.698 8.15 8.15 0 0 1-.664-3.27q0-1.735.664-3.262a8.7 8.7 0 0 1 1.826-2.706 8.7 8.7 0 0 1 2.698-1.835A8.15 8.15 0 0 1 8.991.54q1.735 0 3.271.664a8.6 8.6 0 0 1 2.706 1.835 8.6 8.6 0 0 1 1.835 2.706 8.1 8.1 0 0 1 .664 3.262 8.15 8.15 0 0 1-.664 3.27 8.7 8.7 0 0 1-1.835 2.698 8.6 8.6 0 0 1-2.706 1.835A8.1 8.1 0 0 1 9 17.474m0-1.412a6.9 6.9 0 0 0 2.748-.547 7.2 7.2 0 0 0 2.25-1.511 7 7 0 0 0 1.51-2.25 6.9 6.9 0 0 0 .548-2.747q0-1.47-.548-2.748a7.1 7.1 0 0 0-1.52-2.25A6.9 6.9 0 0 0 11.74 2.5a6.9 6.9 0 0 0-2.747-.548 6.9 6.9 0 0 0-2.748.548q-1.279.54-2.241 1.51a7.2 7.2 0 0 0-1.51 2.25 7 7 0 0 0-.54 2.748q0 1.47.54 2.747a7.2 7.2 0 0 0 1.51 2.25 7.2 7.2 0 0 0 2.25 1.51A6.9 6.9 0 0 0 9 16.064m-.166-5.337q-.664 0-.664-.656v-.108q0-.614.29-.987.3-.374.748-.681.548-.382.813-.647a.96.96 0 0 0 .266-.698.96.96 0 0 0-.34-.763q-.342-.3-.914-.3-.273 0-.514.092-.233.091-.424.266-.19.166-.34.406l-.15.2a.9.9 0 0 1-.257.24.63.63 0 0 1-.348.092.63.63 0 0 1-.39-.141q-.183-.15-.183-.432a1.3 1.3 0 0 1 .066-.407q.175-.572.847-1.004.68-.44 1.751-.44.705 0 1.304.249.597.24.962.714.375.473.374 1.162 0 .746-.39 1.179a5.2 5.2 0 0 1-.988.83q-.44.29-.647.547a.9.9 0 0 0-.208.598v.1q0 .24-.183.415-.174.174-.481.174M8.809 13.2a.88.88 0 0 1-.622-.25.83.83 0 0 1-.266-.614q0-.357.257-.606a.88.88 0 0 1 .631-.257q.366 0 .63.25.267.248.267.613a.8.8 0 0 1-.266.615.9.9 0 0 1-.63.249"></path></svg>