<svg xmlns="http://www.w3.org/2000/svg" width="32" height="32" fill="none" viewBox="6.3 5.147 20.853 21.789" preserveAspectRatio="none"><path d="M9 13.07v5.945a3.303 3.303 0 0 0 3.303 3.303h7.927a3.304 3.304 0 0 0 3.029-1.982H19.9a2.973 2.973 0 0 1-2.973-2.973v-2.642a2.973 2.973 0 0 1 2.973-2.973h3.359a3.304 3.304 0 0 0-3.029-1.982h-7.927A3.303 3.303 0 0 0 9 13.07z" fill="#fff"/><path fill-rule="evenodd" clip-rule="evenodd" d="M18.249 14.721v2.642c0 .913.739 1.652 1.651 1.652h3.303c.912 0 1.652-.74 1.652-1.652v-2.642c0-.912-.74-1.652-1.652-1.652H19.9c-.912 0-1.651.74-1.651 1.652zm3.303 1.321a.99.99 0 1 1-1.982 0 .99.99 0 0 1 1.982 0z" fill="#fff"/></svg>