<svg xmlns="http://www.w3.org/2000/svg" viewBox="63 57 74 8" width="30px" height="30px">
  <path fill="#ffff" d="M 87.64 46.07 L 96.3 29.17 C 97.3 27.22 99.72 26.44 101.7 27.42 C 102.47 27.81 103.1 28.43 103.49 29.2 L 111.67 45.5 C 112.33 46.83 113.64 47.74 115.14 47.92 L 132.26 49.93 C 134.59 50.2 136.25 52.28 135.97 54.57 C 135.86 55.51 135.42 56.39 134.73 57.05 L 121.19 70.13 C 120.65 70.66 120.38 71.41 120.48 72.16 L 122.73 89.81 C 123.05 92.34 121.23 94.65 118.66 94.96 C 117.69 95.08 116.7 94.9 115.84 94.44 L 101.54 86.78 C 100.51 86.23 99.26 86.21 98.21 86.74 L 83.4 94.19 C 81.31 95.24 78.76 94.42 77.69 92.37 C 77.29 91.6 77.15 90.73 77.27 89.88 L 78.46 81.78 C 79.03 77.82 81.54 74.38 85.16 72.56 L 101.62 64.33 C 102.06 64.11 102.23 63.58 102.01 63.15 C 101.83 62.81 101.46 62.62 101.09 62.68 L 80.96 65.5 C 77.88 65.93 74.76 65.08 72.35 63.15 L 65.65 57.79 C 63.74 56.26 63.45 53.5 65 51.61 C 65.72 50.74 66.76 50.17 67.9 50.02 L 85.08 47.86 C 86.18 47.72 87.14 47.05 87.64 46.07 Z"/>
</svg>