<svg xmlns="http://www.w3.org/2000/svg" width="1" height="1" viewBox="0 0 40 40" fill="none">
<g clip-path="url(#clip0_892_259)">
<g clip-path="url(#clip1_892_259)">
<path d="M47.3846 33.8462C47.3846 37.2446 44.6292 40 41.2308 40H-1.84615C-5.24462 40 -8 37.2446 -8 33.8462V6.15385C-8 2.75538 -5.24462 0 -1.84615 0H41.2308C44.6292 0 47.3846 2.75538 47.3846 6.15385V33.8462Z" fill="#75AADB"/>
<path d="M-8 12.3077H47.3846V27.6923H-8V12.3077Z" fill="#EEEEEE"/>
<path d="M19.6923 12.3077L20.4431 16.2277L22.6369 12.8938L21.8292 16.8015L25.1308 14.56L22.8892 17.8631L26.7985 17.0569L23.4646 19.2492L27.3846 20L23.4646 20.7508L26.7985 22.9446L22.8892 22.1369L25.1308 25.4385L21.8292 23.1969L22.6369 27.1061L20.4431 23.7723L19.6923 27.6923L18.9415 23.7723L16.7492 27.1061L17.5554 23.1969L14.2523 25.4385L16.4938 22.1369L12.5862 22.9446L15.92 20.7508L12 20L15.92 19.2492L12.5862 17.0569L16.4938 17.8631L14.2523 14.56L17.5554 16.8015L16.7492 12.8938L18.9415 16.2277L19.6923 12.3077Z" fill="#FCBF49"/>
<path d="M19.6923 14.3538L20.0646 16.3L20.2431 17.2308L20.7646 16.44L21.8538 14.7846L21.4523 16.7246L21.26 17.6538L22.0446 17.1215L23.6846 16.0092L22.5723 17.6492L22.04 18.4338L22.9677 18.2415L24.9092 17.8415L23.2538 18.9308L22.4615 19.4492L23.3923 19.6277L25.3385 20L23.3923 20.3723L22.4615 20.5508L23.2523 21.0723L24.9077 22.1615L22.9662 21.76L22.0369 21.5677L22.5692 22.3523L23.6815 23.9908L22.0431 22.8785L21.2585 22.3462L21.4508 23.2754L21.8523 25.2169L20.7631 23.5615L20.2431 22.7692L20.0646 23.7L19.6923 25.6462L19.32 23.7L19.1415 22.7692L18.62 23.5615L17.5308 25.2169L17.9308 23.2754L18.1231 22.3477L17.3385 22.88L15.6985 23.9923L16.8108 22.3523L17.3431 21.5677L16.4138 21.76L14.4738 22.1615L16.1292 21.0723L16.92 20.5508L15.9892 20.3723L14.0462 20L15.9923 19.6277L16.9231 19.4492L16.1308 18.9277L14.4754 17.8385L16.4154 18.2385L17.3431 18.4308L16.8108 17.6461L15.6969 16.0062L17.3369 17.12L18.1215 17.6523L17.9292 16.7246L17.5292 14.7846L18.6185 16.44L19.14 17.2323L19.3185 16.3015L19.6923 14.3538ZM19.6923 12.3077L18.9415 16.2277L16.7492 12.8938L17.5554 16.8031L14.2523 14.5615L16.4938 17.8646L12.5862 17.0585L15.92 19.2508L12 20L15.92 20.7508L12.5862 22.9446L16.4938 22.1369L14.2523 25.4385L17.5554 23.1969L16.7492 27.1061L18.9415 23.7723L19.6923 27.6923L20.4431 23.7723L22.6369 27.1061L21.8292 23.1969L25.1308 25.4385L22.8892 22.1369L26.7985 22.9446L23.4646 20.7508L27.3846 20L23.4646 19.2492L26.7985 17.0569L22.8892 17.8631L25.1308 14.56L21.8292 16.8015L22.6369 12.8923L20.4431 16.2262L19.6923 12.3077Z" fill="#843511"/>
<path d="M19.6923 23.0769C21.3916 23.0769 22.7692 21.6993 22.7692 20C22.7692 18.3007 21.3916 16.9231 19.6923 16.9231C17.9929 16.9231 16.6154 18.3007 16.6154 20C16.6154 21.6993 17.9929 23.0769 19.6923 23.0769Z" fill="#FCBF49"/>
<path d="M19.6923 23.2692C17.8892 23.2692 16.4231 21.8031 16.4231 20C16.4231 18.1969 17.8892 16.7308 19.6923 16.7308C21.4954 16.7308 22.9616 18.1969 22.9616 20C22.9616 21.8031 21.4954 23.2692 19.6923 23.2692ZM19.6923 17.1154C18.1016 17.1154 16.8077 18.4092 16.8077 20C16.8077 21.5908 18.1016 22.8846 19.6923 22.8846C21.2831 22.8846 22.5769 21.5908 22.5769 20C22.5769 18.4092 21.2831 17.1154 19.6923 17.1154Z" fill="#843511"/>
<path d="M19.3861 19.6523C19.3861 19.8908 18.9846 20.0831 18.4892 20.0831C17.9923 20.0831 17.5908 19.8908 17.5908 19.6523C17.5908 19.4138 17.9923 19.2215 18.4892 19.2215C18.9846 19.2215 19.3861 19.4138 19.3861 19.6523ZM21.7754 19.6154C21.7754 19.3677 21.3661 19.1662 20.8615 19.1662C20.3569 19.1662 19.9477 19.3662 19.9477 19.6154C19.9477 19.8646 20.3569 20.0646 20.8615 20.0646C21.3677 20.0646 21.7754 19.8631 21.7754 19.6154Z" fill="#C16540"/>
<path d="M18.8661 21.3446C18.8661 21.1508 19.2446 20.9923 19.7092 20.9923C20.1754 20.9923 20.5523 21.1492 20.5523 21.3446C20.5523 21.5385 20.1738 21.6969 19.7092 21.6969C19.2431 21.6969 18.8661 21.5385 18.8661 21.3446Z" fill="#ED8662"/>
</g>
</g>
<defs>
<clipPath id="clip0_892_259">
<rect width="40" height="40" rx="20" fill="white"/>
</clipPath>
<clipPath id="clip1_892_259">
<rect width="55.3846" height="40" fill="white" transform="translate(-8)"/>
</clipPath>
</defs>
</svg>