<svg xmlns="http://www.w3.org/2000/svg" width="1" height="1" viewBox="0 0 40 40" fill="none">
<g clip-path="url(#clip0_892_636)">
<g clip-path="url(#clip1_892_636)">
<path d="M47.3846 33.8462C47.3846 37.2446 44.6292 40 41.2308 40H-1.84615C-5.24462 40 -8 37.2446 -8 33.8462V6.15385C-8 2.75538 -5.24462 0 -1.84615 0H41.2308C44.6292 0 47.3846 2.75538 47.3846 6.15385V33.8462Z" fill="#009B3A"/>
<path d="M42.3507 20L19.6923 37.1138L-2.96619 20L19.6923 2.88461L42.3507 20Z" fill="#FEDF01"/>
<path d="M19.6554 29.8185C25.1426 29.8185 29.5908 25.3702 29.5908 19.8831C29.5908 14.3959 25.1426 9.9477 19.6554 9.9477C14.1683 9.9477 9.72003 14.3959 9.72003 19.8831C9.72003 25.3702 14.1683 29.8185 19.6554 29.8185Z" fill="#002776"/>
<path d="M10.8877 15.2108C10.3769 16.1662 10.0292 17.2154 9.85382 18.3231C16 17.8769 24.3415 21.2323 27.9215 25.3923C28.54 24.4631 28.9984 23.4231 29.28 22.3092C24.8615 17.9892 17.1 15.1862 10.8877 15.2108Z" fill="#CBE9D4"/>
<path d="M10.4615 20.3585H12V21.8969H10.4615V20.3585ZM12 23.4354H13.5385V24.9738H12V23.4354Z" fill="#88C9F9"/>
<path d="M15.0769 20.3585H16.6154V21.8969H15.0769V20.3585ZM18.1538 21.8969H19.6923V23.4354H18.1538V21.8969ZM24.3077 24.9738H25.8461V26.5123H24.3077V24.9738ZM19.6923 26.5123H21.2308V28.0508H19.6923V26.5123ZM24.3077 17.2815H25.8461V18.82H24.3077V17.2815Z" fill="#55ACEE"/>
<path d="M21.2308 23.4354H22.7692V24.9738H21.2308V23.4354Z" fill="#3B88C3"/>
</g>
</g>
<defs>
<clipPath id="clip0_892_636">
<rect width="40" height="40" rx="20" fill="white"/>
</clipPath>
<clipPath id="clip1_892_636">
<rect width="55.3846" height="40" fill="white" transform="translate(-8)"/>
</clipPath>
</defs>
</svg>