<svg xmlns="http://www.w3.org/2000/svg" width="1" height="1" viewBox="0 0 40 40" fill="none">
<g clip-path="url(#clip0_892_696)">
<g clip-path="url(#clip1_892_696)">
<path d="M9.23077 40H49.2308C52.6292 40 55.3846 37.2446 55.3846 33.8462V27.6923H9.23077V40Z" fill="#4AA657"/>
<path d="M49.2308 0H9.23077V27.6923H55.3846V6.15385C55.3846 2.75538 52.6292 0 49.2308 0Z" fill="#C8313E"/>
<path d="M6.15385 0C2.75538 0 0 2.75538 0 6.15385V33.8462C0 37.2446 2.75538 40 6.15385 40H9.23077V0H6.15385Z" fill="white"/>
<path d="M1.17846 37.2123L2.14 35.5062L3.12616 37.2615L2.29231 38.6015C2.55539 38.8154 2.83231 39.0062 3.12923 39.1738L4.34769 36.9631L2.16308 33.4615L0.444618 36.1169C0.726156 36.8246 1.13846 37.4585 1.64616 38.0092L1.17846 37.2123ZM9.20154 37.0723L6.89846 33.6538L4.58769 36.9938L6.56616 40H7.56154L9.20154 37.0723ZM6.96616 35.5046L7.95231 37.26L6.96616 38.8462L6.00462 37.2123L6.96616 35.5046ZM9.23077 20.5123V19.1369L8.74923 19.8077L9.23077 20.5123ZM4.34616 3.11692L2.97077 0.910769C1.77385 1.63846 0.856925 2.75538 0.378464 4.09539L2.35539 6.73077L4.34616 3.11692ZM1.17846 3.36615L2.14 1.66L3.12616 3.41538L2.14 5L1.17846 3.36615ZM7.10308 6.97077L9.20154 3.22462L7.02923 0H6.76616L4.58923 3.14769L7.10308 6.97077ZM7.95077 3.41385L6.96616 5L6.00462 3.36615L6.96616 1.66L7.95077 3.41385Z" fill="#C8313E"/>
<path d="M7.62 15.3846L8.96615 13.1492L9.23077 13.2662V12.3077L7.06769 8.94155L4.47077 12.5477L2.16308 8.84616L0 12.1892V13.1892L1.32154 15.3846L2.25846 14.0139L1.58615 13.0769L2.09077 12.4031L3.55692 14.3015L1.39385 17.8585L0 15.94V18.3292L0.0892308 18.2108L1.55538 20.1092L0 22.6692V24.48L1.39385 22.56L3.55692 26.1169L2.34154 27.6923L2.09077 28.0169L1.84769 27.6923L1.58615 27.3431L2.26 26.4062L1.32308 25.0354L0 27.2323V28.1169L2.21231 31.4908L4.36615 27.6923L4.44769 27.5477L4.53692 27.6923L7.02 31.7062L9.23077 27.7877V27.1862L9.03846 27.2723L7.69231 25.0354L6.75385 26.4062L7.42769 27.3431L7.16615 27.6923L6.92308 28.0169L6.67231 27.6923L5.45692 26.1185L7.62 22.5615L9.23077 24.7785V23.0215L7.45077 20.0954L8.91692 18.1969L9.23077 18.6154V15.5431L7.54769 17.8615L5.38462 14.3031L6.85077 12.4046L7.35538 13.0769L6.68154 14.0139L7.62 15.3846ZM6.59231 18.5092V21.4754L4.44615 24.8646L2.42462 21.4615V18.5262L4.44615 15.1215L6.59231 18.5092Z" fill="#C8313E"/>
<path d="M3.12461 18.1892L4.04461 19.8677L3.12461 21.5462L3.79845 21.9154L4.48307 20.6677L5.16769 21.9154L5.84153 21.5462L4.92153 19.8677L5.84153 18.1892L5.16769 17.82L4.48307 19.0677L3.79845 17.82L3.12461 18.1892ZM0.0399933 32.5969L1.00153 34.2308L1.98769 32.6446L1.00153 30.8892L0.0399933 32.5969ZM2.3723 32.5969L3.33384 34.2308L4.31845 32.6446L3.33384 30.8892L2.3723 32.5969ZM4.65538 32.5969L5.61692 34.2308L6.60307 32.6446L5.61692 30.8892L4.65538 32.5969ZM7.10461 32.5969L8.06615 34.2308L9.05076 32.6446L8.06615 30.8892L7.10461 32.5969ZM0.0399933 7.88462L1.00153 9.52001L1.98769 7.93231L1.00153 6.17847L0.0399933 7.88462ZM2.3723 7.88462L3.33384 9.52001L4.31845 7.93231L3.33384 6.17847L2.3723 7.88462ZM4.65538 7.88462L5.61692 9.52001L6.60307 7.93231L5.61692 6.17847L4.65538 7.88462ZM7.10461 7.88462L8.06615 9.52001L9.05076 7.93231L8.06615 6.17847L7.10461 7.88462Z" fill="#C8313E"/>
</g>
</g>
<defs>
<clipPath id="clip0_892_696">
<rect width="40" height="40" rx="20" fill="white"/>
</clipPath>
<clipPath id="clip1_892_696">
<rect width="55.3846" height="40" fill="white"/>
</clipPath>
</defs>
</svg>