<svg xmlns="http://www.w3.org/2000/svg" fill="none" viewBox="0 0 40 40">
<g clip-path="url(#b)">
<g clip-path="url(#a)">
<path d="m47.385 33.846c0 3.3984-2.7554 6.1538-6.1538 6.1538h-43.077c-3.3985 0-6.1538-2.7554-6.1538-6.1538v-27.692c0-3.3985 2.7554-6.1538 6.1538-6.1538h43.077c3.3984 0 6.1538 2.7554 6.1538 6.1538v27.692z" fill="#141414"/>
<path d="M-8 12.3077H47.3846V27.6923H-8V12.3077Z" fill="#eee"/>
<path d="M41.2308 0H-1.84615C-5.24462 0 -8 2.75538 -8 6.15385V12.3077H47.3846V6.15385C47.3846 2.75538 44.6292 0 41.2308 0Z" fill="#CE1225"/>
<path d="m14.692 25.48s0.0246 0.3846 0.36 0.577c0 0-0.0954 0.2892 0.2646 0.4569s1.6585 0.4323 3.9185 0.4323 3.5338-0.24 3.8708-0.4092c0.3369-0.1677 0.36-0.5524 0.36-0.5524s0.36-0.1923 0.3369-0.4323c-0.0246-0.24-0.5046-0.5046-0.5046-0.5046s-0.12-0.3123-0.457-0.4323c-0.3369-0.12-1.4184 0.5292-3.4861 0.4323-2.0677-0.0954-3.2446-0.4092-3.6292-0.3846-0.3847 0.0246-0.5524 0.4092-0.5524 0.4092s-0.4338 0.1923-0.4815 0.4077z" fill="#BF9300"/>
<path d="m14.957 25.457c-0.02 0.1431 0.2892 0.4569 0.2892 0.4569s0 0.36 0.3123 0.457c0.3124 0.0969 1.5862 0.3369 3.6539 0.3123s3.5338-0.1446 3.7015-0.2893c0.1677-0.1446 0.3123-0.4569 0.3123-0.4569s0.337-0.24 0.3123-0.4323c-0.0246-0.1923-0.5046-0.3123-0.5046-0.3123s-0.1354-0.2892-0.2954-0.4092-1.1938 0.48-3.4061 0.48c-2.1646 0-3.4139-0.5293-3.6292-0.5046-0.217 0.0246-0.36 0.4323-0.36 0.4323s-0.3616 0.0984-0.3862 0.2661z" fill="#eee"/>
<path d="m24.091 16.129s-0.0477-1.1292-1.0816-0.9861c-1.0338 0.1446-1.1061 0.6492-2.2123 0.7692l-0.2277 0.0215c-0.1661-0.4384-0.3015-1.0723-0.3015-1.56 0-0.7215 0.2169-1.0338-0.5292-1.3938-0.7447-0.36-0.8893-0.0246-0.8893-0.0246s-0.5769-0.2893-0.8415-0.0723c-0.2646 0.2169-0.12 0.7692 0 0.6015s0.6015 0.3123 0.6015 0.3123c0.1631 0.7985-0.3 1.6631-0.6169 2.1446-0.1092-0.0107-0.1969-0.0153-0.32-0.0292-1.1062-0.12-1.1785-0.6246-2.2123-0.7692-1.0339-0.1446-1.0815 0.9861-1.0815 0.9861l-0.4093 8.7262 0.8416-0.6493 0.0046-0.103 1.7507-1.5554 0.2924-0.2923-0.7247 2.1184s-1.1061-0.0723-0.7938 0.817c0 0 0.1677-0.5047 0.4569-0.4093s1.1292 0.3123 1.1292 0.3123l0.2893 0.457 0.36-0.337 1.1292-0.0477s0.36 0.0954 0.3369 0.4093c0.0754-0.1739 0.0846-0.3169 0.057-0.4354l0.34-0.0231c-0.0339 0.1231-0.0277 0.2739 0.0523 0.46-0.0247-0.3123 0.3369-0.4092 0.3369-0.4092l1.1292 0.0477 0.3616 0.3369 0.2892-0.4569s0.84-0.2169 1.1277-0.3123 0.4569 0.4092 0.4569 0.4092c0.3123-0.8892-0.7938-0.8169-0.7938-0.8169l-0.6908-2.02 0.1938 0.1938 1.7508 1.5554 0.0046 0.1031 0.8416 0.6492-0.4077-8.7277zm-4.78 5.2893c-1.7339-1.0708-1.877-3.7739-1.877-3.7739s1.0723-0.0554 1.8508-0.6015c0.7015 0.623 1.8985 0.5523 1.8985 0.5523s-0.0816 2.7138-1.8723 3.8231zm3.963-5.6247-1.4661 1.3939-0.2462 0.0984c-0.2523 0.0093-1.48 0.0124-2.2538-0.6753-0.9616 0.6738-2.2831 0.7215-2.2831 0.7215l-0.2046-0.0815-1.6231-1.457-0.4261 0.1754c0.0184-0.1738 0.1138-0.5646 0.643-0.4877 0.8677 0.1246 1.2262 0.6016 2.14 0.697l0.2585 0.0261-0.0908 0.1169c0.1416 0 0.3508-0.0415 0.5046-0.0753l0.1739 0.0169-0.0785 0.2738c0.1231-0.0369 0.3016-0.1431 0.4477-0.2369l0.4 0.0385 0.0908 0.1261 0.3046-0.1523 0.2046-0.02c0.1769 0.1031 0.4293 0.1954 0.4293 0.1954l0.0476-0.24c0.217 0.1446 0.577 0.1446 0.577 0.1446-0.0416-0.0338-0.0831-0.12-0.1262-0.1938l0.2216-0.0231c0.9138-0.0954 1.2707-0.5723 2.14-0.6969 0.5292-0.0754 0.6246 0.3138 0.643 0.4877l-0.4277-0.1724z" fill="#BF9300"/>
<path d="m18.731 21.371-0.8662 3.2924-1.4415-0.2877 1.4907-4.2308 0.817 1.2261zm1.0754 0 0.8646 3.2924 1.443-0.2877-1.4907-4.2308-0.8169 1.2261z" fill="#eee"/>
<path d="m17.794 17.909s0.12 1.3938 0.7447 2.4754v-2.7877s-0.4093 0.24-0.7447 0.3123zm3.0047 0.0477s-0.12 1.3938-0.7447 2.4754v-2.7877c-0.0015 0 0.4077 0.24 0.7447 0.3123z" fill="#BF9300"/>
<path d="m18.082 13.197s0.1677-0.1677 0.6493 0.1677c0.3123 0.2185 0.5892 0.3846 0.5892 0.3846s0.1969-0.2077 0.4862-0.16c0.2892 0.0477 0.1277 0.4493 0.1753 1.2893 0.0477 0.8415 0.3847 1.2015 0.3847 1.2015l-0.4093-0.24 0.0246 0.2646-0.4569-0.2169-0.2169 0.3123-0.2169-0.3369-0.3508 0.2138-0.1061-0.2861-0.4093 0.2169s0.6016-0.7446 0.6493-1.5631c0.0138-0.2446-0.0477-0.7938-0.0477-0.7938s-0.3831-0.4785-0.7447-0.4539z" fill="#eee"/>
<path d="m15.918 25.625c-0.2753 0.1646-0.1676 0.2646 0 0.3369 0.1677 0.0723 1.177 0.1939 3.2216 0.24 2.0908 0.0477 3.3892-0.1923 3.5569-0.2892 0.1677-0.0954 0.1923-0.2646-0.0954-0.3123-0.2892-0.0477-1.7307 0.1923-3.4861 0.1923-2.1631 0.0015-3.077-0.24-3.197-0.1677z" fill="#BF9300"/>
</g>
</g>
<defs>
<clipPath id="b">
<rect width="40" height="40" rx="20" fill="#fff"/>
</clipPath>
<clipPath id="a">
<rect transform="translate(-8)" width="55.385" height="40" fill="#fff"/>
</clipPath>
</defs>
</svg>