<svg xmlns="http://www.w3.org/2000/svg" width="1" height="1" viewBox="0 0 40 40" fill="none">
<g clip-path="url(#clip0_1030_12181)">
<rect width="40" height="40" rx="20" fill="white"/>
<path d="M41.5385 0H-1.53846C-4.93692 0 -7.69231 2.75538 -7.69231 6.15385V33.8462C-7.69231 37.2446 -4.93692 40 -1.53846 40H41.5385C44.9369 40 47.6923 37.2446 47.6923 33.8462V6.15385C47.6923 2.75538 44.9369 0 41.5385 0Z" fill="#003399"/>
<path d="M20.8295 7.23849L22.1356 6.28926H20.5218L20.0218 4.75388L19.5233 6.28926H17.9095L19.2156 7.23849L18.7156 8.77388L20.0218 7.82465L21.328 8.77388L20.8295 7.23849ZM20.8295 33.9046L22.1356 32.9554H20.5218L20.0218 31.42L19.5233 32.9554H17.9095L19.2156 33.9046L18.7156 35.44L20.0218 34.4908L21.328 35.44L20.8295 33.9046ZM7.49718 20.5708L8.80334 19.6216H7.18795L6.68949 18.0862L6.18949 19.6216H4.57565L5.8818 20.5708L5.38334 22.1062L6.68949 21.157L7.99564 22.1062L7.49718 20.5708ZM9.20026 13.9785L10.5064 13.0293H8.89103L8.39257 11.4939L7.89411 13.0293H6.27872L7.58488 13.9785L7.08641 15.5139L8.39257 14.5646L9.69872 15.5139L9.20026 13.9785ZM9.20026 27.2385L10.5064 26.2893H8.89103L8.39257 24.7539L7.89411 26.2893H6.27872L7.58488 27.2385L7.08641 28.7739L8.39257 27.8246L9.69872 28.7739L9.20026 27.2385ZM14.1633 9.02464L15.4695 8.07541H13.8541L13.3556 6.54003L12.8572 8.07541H11.2418L12.548 9.02464L12.0495 10.56L13.3556 9.6108L14.6618 10.56L14.1633 9.02464ZM14.1633 32.2046L15.4695 31.2554H13.8541L13.3556 29.72L12.8572 31.2554H11.2418L12.548 32.2046L12.0495 33.74L13.3556 32.7923L14.6618 33.74L14.1633 32.2046ZM32.5033 20.5708L31.1972 19.6216H32.8126L33.311 18.0862L33.811 19.6216H35.4249L34.1187 20.5708L34.6172 22.1062L33.311 21.157L32.0049 22.1062L32.5033 20.5708ZM30.8003 13.9785L29.4941 13.0293H31.1095L31.608 11.4939L32.1064 13.0293H33.7218L32.4156 13.9785L32.9141 15.5139L31.608 14.5646L30.3018 15.5139L30.8003 13.9785ZM30.8003 27.2385L29.4941 26.2893H31.1095L31.608 24.7539L32.1064 26.2893H33.7218L32.4156 27.2385L32.9141 28.7739L31.608 27.8246L30.3018 28.7739L30.8003 27.2385ZM25.8372 9.02464L24.531 8.07541H26.1464L26.6449 6.54003L27.1433 8.07541H28.7587L27.4526 9.02464L27.951 10.56L26.6449 9.6108L25.3387 10.56L25.8372 9.02464ZM25.8372 32.2046L24.531 31.2554H26.1464L26.6449 29.72L27.1433 31.2554H28.7587L27.4526 32.2046L27.951 33.74L26.6449 32.7923L25.3387 33.74L25.8372 32.2046Z" fill="#FFCC00"/>
</g>
<defs>
<clipPath id="clip0_1030_12181">
<rect width="40" height="40" rx="20" fill="white"/>
</clipPath>
</defs>
</svg>