<svg xmlns="http://www.w3.org/2000/svg" width="40" height="40" viewBox="0 0 40 40" fill="none">
<g clip-path="url(#clip0_892_24893)">
<g clip-path="url(#clip1_892_24893)">
<path d="M23.7938 21.5385L23.0754 22.7831H24.5123L23.7938 21.5385ZM19.6923 25.5661L20.4107 24.3215H18.9738L19.6923 25.5661Z" fill="#EDECEC"/>
<path d="M-8 30.7692H47.3846V9.23077H-8V30.7692ZM-7.54769 3.84615H46.9338C46.02 1.59231 43.8123 0 41.2308 0H-1.84615C-4.42769 0 -6.63538 1.59231 -7.54769 3.84615Z" fill="#EEEEEE"/>
<path d="M24.5123 17.2169H23.0754L23.7939 18.4615L24.5123 17.2169ZM16.3092 17.2169H14.8723L15.5908 18.4615L16.3092 17.2169ZM21.2985 22.7831L22.9062 20L21.2985 17.2169H18.0862L16.4785 20L18.0862 22.7831H21.2985ZM15.5908 21.5385L14.8723 22.7831H16.3092L15.5908 21.5385ZM19.6923 14.4338L18.9739 15.6785H20.4108L19.6923 14.4338Z" fill="#EDECEC"/>
<path d="M-7.54769 3.84616C-7.83692 4.56001 -8 5.33693 -8 6.15385V9.23078H47.3846V6.15385C47.3846 5.33693 47.2215 4.56001 46.9323 3.84616H-7.54769Z" fill="#0038B8"/>
<path d="M-7.54767 36.1539H46.9339C46.02 38.4077 43.8123 40 41.2308 40H-1.84613C-4.42767 40 -6.63536 38.4077 -7.54767 36.1539Z" fill="#EEEEEE"/>
<path d="M-7.54769 36.1539C-7.83692 35.44 -8 34.6631 -8 33.8462V30.7692H47.3846V33.8462C47.3846 34.6631 47.2215 35.44 46.9323 36.1539H-7.54769ZM17.1969 24.3215L19.6923 28.6431L22.1877 24.3215H27.1769L24.6831 20L27.1785 15.6785H22.1892L19.6923 11.3569L17.1969 15.6785H12.2077L14.7015 20L12.2062 24.3215H17.1969ZM19.6923 25.5662L18.9738 24.3215H20.4108L19.6923 25.5662ZM24.5123 17.2169L23.7938 18.4615L23.0754 17.2185L24.5123 17.2169ZM23.7938 21.5385L24.5123 22.7816H23.0754L23.7938 21.5385ZM19.6923 14.4339L20.4108 15.6785H18.9738L19.6923 14.4339ZM18.0862 17.2169H21.3L22.9062 20L21.3 22.7831H18.0862L16.4785 20L18.0862 17.2169ZM16.3092 17.2169L15.5908 18.4615L14.8723 17.2185L16.3092 17.2169ZM15.5908 21.5385L16.3092 22.7816H14.8723L15.5908 21.5385Z" fill="#0038B8"/>
</g>
</g>
<defs>
<clipPath id="clip0_892_24893">
<rect width="40" height="40" rx="20" fill="white"/>
</clipPath>
<clipPath id="clip1_892_24893">
<rect width="55.3846" height="40" fill="white" transform="translate(-8)"/>
</clipPath>
</defs>
</svg>