<svg xmlns="http://www.w3.org/2000/svg" width="40" height="40" viewBox="0 0 40 40" fill="none">
<g clip-path="url(#clip0_892_26369)">
<g clip-path="url(#clip1_892_26369)">
<path d="M0 12.3077H55.3846V27.6923H0V12.3077Z" fill="#0C4076"/>
<path d="M0 33.8462C0 37.2446 2.75538 40 6.15385 40H49.2308C52.6292 40 55.3846 37.2446 55.3846 33.8462V27.6923H0V33.8462Z" fill="#EEEEEE"/>
<path d="M55.3846 6.15385C55.3846 2.75538 52.6292 0 49.2308 0H6.15385C2.75538 0 0 2.75538 0 6.15385V12.3077H55.3846V6.15385ZM10.7692 12.3077V26.9231C10.7692 31.5954 14.5569 35.3846 19.2308 35.3846C23.9046 35.3846 27.6923 31.5954 27.6923 26.9231V12.3077H10.7692Z" fill="#C6363C"/>
<path d="M19.2308 3.1723C13.1723 3.1723 11.2739 5.74461 11.7785 6.70615C12.2831 7.66769 13.7969 10.1431 13.7969 10.1431C13.7969 10.1431 13.3169 10.3354 13.7969 11.2969C14.2769 12.2585 16.1523 11.6092 19.2292 11.6092C22.3062 11.6092 24.1816 12.2585 24.6616 11.2969C25.1416 10.3354 24.6616 10.1431 24.6616 10.1431C24.6616 10.1431 26.1754 7.66769 26.6816 6.70615C27.1877 5.74461 25.2892 3.1723 19.2308 3.1723ZM13.9416 7.74C13.5062 7.87538 13.9416 9.20615 13.7877 8.63076C13.6616 8.15538 13.1723 7.95692 13.1723 8.22153C13.1723 8.48615 12.98 8.22153 13.0277 7.74153C13.0754 7.25999 12.9323 6.9723 12.6431 6.56307C12.3554 6.15384 12.3554 5.79384 12.7169 5.5523C13.0769 5.3123 13.8708 5.11999 13.8708 5.11999C13.8708 5.11999 14.1831 6.49076 14.3508 6.80307C14.5185 7.11538 14.8308 7.32 14.8308 7.32C14.8308 7.32 14.6862 7.54769 14.8308 7.66769C14.9754 7.78769 15.1431 8.07692 15.1431 8.07692C15.1431 8.07692 14.6154 7.64461 14.52 7.74C14.4246 7.83538 14.64 7.95692 14.6154 8.12461C14.5908 8.29384 14.3262 7.62 13.9416 7.74ZM18.8462 7.76461C18.7262 7.88461 18.6292 7.66769 18.3892 7.49999C18.1492 7.3323 18.0046 7.42923 18.0523 7.62153C18.1 7.81384 17.7631 7.78923 17.7631 8.07846C17.7631 8.36769 17.4508 8.24615 17.4508 8.24615C17.4508 8.24615 17.8354 7.23692 17.1862 7.25999C16.8185 7.27384 16.9462 8.02923 17.1862 8.29384C17.08 8.1323 16.7769 8.12615 16.5246 7.93384C16.2723 7.74153 16.56 7.42769 16.3677 7.49999C16.1754 7.5723 16.0554 7.88461 15.8631 7.95692C15.6708 8.02923 15.7677 7.73846 15.8631 7.49999C15.9585 7.25999 15.7523 7.13999 15.7523 7.13999C15.7523 7.13999 15.7677 6.9723 15.9123 6.87538C16.0569 6.77999 16.1046 6.61076 15.9123 6.41846C15.72 6.22615 15.0246 5.14461 15.24 4.78307C15.4569 4.42307 16.1769 4.01384 18.1969 4.06153C18.5569 5.71999 18.0046 6.53692 18.0046 6.53692C18.0046 6.53692 18.4139 6.80153 18.5339 6.94615C18.2446 7.06769 18.4616 7.18769 18.6539 7.35538C18.8462 7.52461 18.9662 7.64461 18.8462 7.76461ZM22.5969 7.49999C22.6923 7.74 22.7892 8.02923 22.5969 7.95692C22.4046 7.88461 22.2846 7.5723 22.0923 7.49999C21.9 7.42769 22.1877 7.74153 21.9354 7.93384C21.6831 8.12615 21.3816 8.1323 21.2739 8.29384C21.5139 8.02923 21.6416 7.27384 21.2739 7.25999C20.6246 7.23538 21.0092 8.24615 21.0092 8.24615C21.0092 8.24615 20.6969 8.36615 20.6969 8.07846C20.6969 7.79076 20.36 7.81384 20.4077 7.62153C20.4554 7.42923 20.3123 7.3323 20.0708 7.49999C19.8308 7.66769 19.7339 7.88461 19.6139 7.76461C19.4939 7.64461 19.6139 7.52461 19.8062 7.35538C20 7.18769 20.2169 7.06769 19.9277 6.94769C20.0477 6.80307 20.4569 6.53846 20.4569 6.53846C20.4569 6.53846 19.9046 5.72153 20.2646 4.06307C22.2831 4.01538 23.0046 4.42307 23.2216 4.78461C23.4385 5.14461 22.7416 6.22769 22.5477 6.41846C22.3539 6.60923 22.4031 6.77846 22.5477 6.87538C22.6923 6.97076 22.7077 7.13999 22.7077 7.13999C22.7077 7.13999 22.5 7.25999 22.5969 7.49999ZM25.8169 6.56307C25.5277 6.9723 25.3846 7.25999 25.4323 7.74153C25.48 8.22153 25.2877 8.48615 25.2877 8.22153C25.2877 7.95692 24.7985 8.15692 24.6723 8.63076C24.5185 9.20615 24.9539 7.87692 24.5185 7.74C24.1339 7.62 23.6292 8.77384 23.7492 8.65384C23.8692 8.53384 24.0385 7.83692 23.9416 7.74C23.8462 7.64307 23.3169 8.07692 23.3169 8.07692C23.3169 8.07692 23.4846 7.78769 23.6292 7.66769C23.7739 7.54769 23.6292 7.32 23.6292 7.32C23.6292 7.32 23.9416 7.11538 24.1092 6.80307C24.2769 6.49076 24.5892 5.11999 24.5892 5.11999C24.5892 5.11999 25.3831 5.3123 25.7431 5.5523C26.1031 5.7923 26.1062 6.15384 25.8169 6.56307Z" fill="#EDB92E"/>
<path d="M19.3985 3.44924C19.3985 3.60155 19.2738 3.72617 19.1215 3.72617C18.9692 3.72617 18.8446 3.60155 18.8446 3.44924V1.02155C18.8446 0.869244 18.9692 0.744629 19.1215 0.744629C19.2738 0.744629 19.3985 0.869244 19.3985 1.02155V3.44924Z" fill="#FFAC33"/>
<path d="M19.9523 1.67076C19.9523 1.81076 19.84 1.92307 19.7 1.92307H18.4985C18.3585 1.92307 18.2462 1.81076 18.2462 1.67076C18.2462 1.53076 18.3585 1.41846 18.4985 1.41846H19.7C19.84 1.41846 19.9523 1.53076 19.9523 1.67076Z" fill="#EDB92E"/>
<path d="M20.0246 3.17231C20.0246 3.68308 19.6108 4.09846 19.0985 4.09846C18.5877 4.09846 18.1723 3.68308 18.1723 3.17231C18.1723 2.66154 18.5862 2.24615 19.0985 2.24615C19.6092 2.24769 20.0246 2.66154 20.0246 3.17231ZM14.7754 11.1938C14.7754 11.42 14.5154 11.6031 14.1938 11.6031C13.8723 11.6031 13.6123 11.42 13.6123 11.1938C13.6123 10.9692 13.8723 10.7862 14.1938 10.7862C14.5154 10.7862 14.7754 10.9677 14.7754 11.1938Z" fill="#0C4076"/>
<path d="M17.1153 11.0539C17.1153 11.28 16.8553 11.4631 16.5338 11.4631C16.2123 11.4631 15.9523 11.28 15.9523 11.0539C15.9523 10.8293 16.2123 10.6462 16.5338 10.6462C16.8538 10.6462 17.1153 10.8293 17.1153 11.0539ZM22.3077 11.0539C22.3077 11.28 22.0477 11.4631 21.7261 11.4631C21.4046 11.4631 21.1446 11.28 21.1446 11.0539C21.1446 10.8293 21.4046 10.6462 21.7261 10.6462C22.0461 10.6462 22.3077 10.8293 22.3077 11.0539Z" fill="#C6363C"/>
<path d="M24.7108 11.1939C24.7108 11.42 24.4508 11.6031 24.1293 11.6031C23.8077 11.6031 23.5477 11.42 23.5477 11.1939C23.5477 10.9693 23.8077 10.7862 24.1293 10.7862C24.4508 10.7862 24.7108 10.9677 24.7108 11.1939ZM19.7046 11.0246C19.7046 11.2508 19.4446 11.4339 19.1231 11.4339C18.8016 11.4339 18.5416 11.2508 18.5416 11.0246C18.5416 10.7985 18.8016 10.6169 19.1231 10.6169C19.4446 10.6169 19.7046 10.7985 19.7046 11.0246Z" fill="#0C4076"/>
<path d="M15.8247 27.0185C15.2985 28.2123 15.2431 28.8 14.62 28.7585C13.9954 28.717 13.5554 28.6108 13.5554 28.8631C13.5554 29.1139 14.5477 29.0093 14.5477 29.0093C14.5477 29.0093 13.6108 29.4093 13.7954 29.8693C13.9785 30.3308 14.7877 29.2831 14.7877 29.2831C14.7877 29.2831 14.9523 29.3246 15.2647 29.0723C15.577 28.8216 16.4031 27.6062 16.4031 27.6062L15.8247 27.0185ZM22.6123 27.0185C23.1385 28.2123 23.1939 28.8 23.817 28.7585C24.4416 28.717 24.8816 28.6108 24.8816 28.8631C24.8816 29.1139 23.8908 29.0093 23.8908 29.0093C23.8908 29.0093 24.8277 29.4093 24.6431 29.8693C24.46 30.3308 23.6508 29.2831 23.6508 29.2831C23.6508 29.2831 23.4862 29.3246 23.1739 29.0723C22.8616 28.8216 22.0354 27.6062 22.0354 27.6062L22.6123 27.0185Z" fill="#EDB92E"/>
<path d="M26.3293 16.4431C26.0585 14.5846 24.3093 15.1615 23.5662 16.4431C22.8231 17.7246 22.1816 18.4938 21.4939 17.5969C20.8062 16.7 20.3523 15.7384 21.3462 14.52L22.34 13.3015C22.1985 12.5646 21.6031 12.7246 20.7508 13.0769C19.8985 13.4292 19.36 13.2692 19.4446 13.6538C19.5308 14.0384 19.8416 14.0708 19.8416 14.0708C19.8416 14.0708 19.3046 14.5938 19.1631 16.3985C19.0216 14.5938 18.4846 14.0708 18.4846 14.0708C18.4846 14.0708 18.7969 14.0384 18.8816 13.6538C18.9662 13.2692 18.4277 13.4292 17.5754 13.0769C16.7231 12.7246 16.1277 12.5646 15.9862 13.3015L16.98 14.52C17.9739 15.7384 17.52 16.7 16.8323 17.5969C16.1462 18.4938 15.5031 17.8215 14.76 16.5384C14.0169 15.2569 12.2662 14.68 11.9969 16.5384C11.7262 18.3969 12.04 21.6338 12.04 21.6338C12.04 21.6338 11.8693 23.3969 12.2108 24.9031C12.5508 26.4092 12.7508 27.7554 12.2108 28.9092C12.8062 28.7492 13.1754 27.98 13.1754 27.98C13.1754 27.98 12.9769 28.9092 13.3462 28.8138C13.7154 28.7184 13.8 28.0123 14.0831 27.7554C14.3677 27.5 14.5954 26.9231 14.5954 26.9231C14.5954 26.9231 15.1923 26.6984 14.5954 27.6923C15.0785 27.7246 15.3908 27.4031 15.3908 27.4031L15.56 28.3015L15.8446 27.8215L15.9862 28.6861L16.4969 27.8523L16.8323 28.2369C16.8323 28.2369 16.8954 26.6031 17.3493 26.9231C17.8031 27.2431 17.8308 28.3015 17.52 28.9415C17.2077 29.5815 17.52 29.84 17.52 29.84C17.52 29.84 17.0662 30.5138 16.8339 30.8984C16.6016 31.2831 16.9539 31.7308 16.9539 31.7308C16.9539 31.7308 16.0739 33.0446 16.3185 33.5584C16.5554 34.0508 18.0216 34.3646 19.0939 34.3877L19.1031 34.3923L19.1631 34.3908L19.2231 34.3923L19.2323 34.3877C20.3046 34.3646 21.7708 34.0508 22.0077 33.5584C22.2539 33.0461 21.3723 31.7308 21.3723 31.7308C21.3723 31.7308 21.7231 31.2831 21.4923 30.8984C21.26 30.5138 20.8046 29.84 20.8046 29.84C20.8046 29.84 21.1169 29.5815 20.8046 28.9415C20.4939 28.3015 20.5216 27.2431 20.9754 26.9231C21.4293 26.6031 21.4908 28.2369 21.4908 28.2369L21.8262 27.8523L22.3369 28.6861L22.4785 27.8215L22.7631 28.3015L22.9323 27.4031C22.9323 27.4031 23.2446 27.7231 23.7277 27.6923C23.1308 26.6984 23.7277 26.9231 23.7277 26.9231C23.7277 26.9231 23.9554 27.5 24.2385 27.7569C24.5216 28.0138 24.6077 28.7184 24.9769 28.8154C25.3462 28.9108 25.1477 27.9815 25.1477 27.9815C25.1477 27.9815 25.5169 28.7508 26.1123 28.9108C25.5739 27.7569 25.7723 26.4092 26.1123 24.9046C26.4539 23.3984 26.2831 21.6354 26.2831 21.6354C26.2831 21.6354 26.6 18.3015 26.3293 16.4431Z" fill="white"/>
<path d="M18.2939 14.3261C17.617 13.6769 15.9277 12.8354 15.3677 12.9554C14.8077 13.0769 14.3585 13.4615 14.7754 14.0631C15.1923 14.6646 15.3677 14.64 15.3677 14.64C15.3677 14.64 16.0339 14.0385 16.3231 14.3754C16.6123 14.7123 16.3708 14.8323 15.8431 14.88C15.3139 14.9277 14.777 14.5677 14.777 14.5677C14.777 14.5677 14.9508 15.1923 15.6846 15.2646C16.1785 15.7446 16.8016 15.3846 17.1154 15.3846C17.4293 15.3846 18.8939 14.9046 18.2939 14.3261ZM20.0339 14.3261C20.7108 13.6769 22.4 12.8354 22.96 12.9554C23.52 13.0754 23.9693 13.46 23.5523 14.0615C23.1354 14.6631 22.96 14.6385 22.96 14.6385C22.96 14.6385 22.2939 14.0369 22.0046 14.3738C21.7154 14.7108 21.957 14.8308 22.4846 14.8785C23.0139 14.9261 23.5508 14.5661 23.5508 14.5661C23.5508 14.5661 23.377 15.1908 22.6431 15.2631C22.1493 15.7446 21.5262 15.3846 21.2123 15.3846C20.8985 15.3846 19.4323 14.9046 20.0339 14.3261ZM15.337 31.0754C15.5477 30.5892 15.4 30.52 15.2308 30.3508C15.06 30.1831 14.9754 29.9477 14.9754 29.9477C14.9754 29.9477 14.8908 30.1815 14.72 30.3508C14.5493 30.5185 14.4016 30.5877 14.6123 31.0754C14.1 30.7723 14.0154 31.3277 14.2508 31.6646C14.317 31.3615 14.72 31.4308 14.72 31.8C14.72 32.1692 14.3862 32.0015 14.4262 32.1523C14.4677 32.3046 14.7723 32.6231 14.9739 32.6231C15.1754 32.6231 15.4816 32.3046 15.5216 32.1523C15.5631 32 15.2293 32.1692 15.2293 31.8C15.2293 31.4308 15.6308 31.3615 15.6985 31.6646C15.9354 31.3277 15.8508 30.7723 15.337 31.0754ZM23.7031 31.0754C23.9139 30.5892 23.7662 30.52 23.5954 30.3508C23.4246 30.1831 23.34 29.9477 23.34 29.9477C23.34 29.9477 23.2554 30.1815 23.0846 30.3508C22.9139 30.5185 22.7662 30.5877 22.977 31.0754C22.4646 30.7723 22.38 31.3277 22.6154 31.6646C22.6816 31.3615 23.0846 31.4308 23.0846 31.8C23.0846 32.1692 22.7508 32.0015 22.7923 32.1523C22.8323 32.3046 23.1385 32.6231 23.34 32.6231C23.5416 32.6231 23.8477 32.3046 23.8877 32.1523C23.9293 32 23.5954 32.1692 23.5954 31.8C23.5954 31.4308 23.997 31.3615 24.0646 31.6646C24.3 31.3277 24.217 30.7723 23.7031 31.0754Z" fill="#EDB92E"/>
<path d="M15.76 18.2692V24.2061C15.76 26.1031 17.2985 27.6431 19.1969 27.6431C21.0954 27.6431 22.6339 26.1031 22.6339 24.2061V18.2692H15.76Z" fill="#C6363C"/>
<path d="M22.6338 21.8031H19.9385V18.2692H18.4585V21.8031H15.7615V23.2846H18.4585V27.56C18.6969 27.6123 18.9431 27.6446 19.1985 27.6446C19.4538 27.6446 19.7 27.6123 19.94 27.56V23.2846H22.6369V21.8031H22.6338Z" fill="#EEEEEE"/>
</g>
</g>
<defs>
<clipPath id="clip0_892_26369">
<rect width="40" height="40" rx="20" fill="white"/>
</clipPath>
<clipPath id="clip1_892_26369">
<rect width="55.3846" height="40" fill="white"/>
</clipPath>
</defs>
</svg>