<svg xmlns="http://www.w3.org/2000/svg" width="40" height="40" viewBox="0 0 40 40" fill="none">
<g clip-path="url(#clip0_892_26573)">
<g clip-path="url(#clip1_892_26573)">
<path d="M41.2308 0H-1.84615C-5.24462 0 -8 2.75538 -8 6.15385V33.8462C-8 37.2446 -5.24462 40 -1.84615 40H41.2308C44.6292 40 47.3846 37.2446 47.3846 33.8462V6.15385C47.3846 2.75538 44.6292 0 41.2308 0Z" fill="#006C35"/>
<path d="M5.72156 13.9231C6.69386 14.0154 6.15694 12.2785 6.50925 11.9631C6.5754 11.8078 6.69848 11.8062 6.70771 12.0031V13.477C6.69848 13.957 7.01386 14.097 7.25848 14.197C7.51386 14.177 7.68309 14.1862 7.78309 14.4339L7.90309 16.9847C7.90309 16.9847 8.49386 17.1539 8.52156 15.5493C8.55079 14.6078 8.33386 13.8201 8.46156 13.637C8.46617 13.457 8.6954 13.4462 8.8554 13.5339C9.10925 13.7124 9.22309 13.9339 9.61694 13.8462C10.2185 13.6816 10.5785 13.3893 10.5877 12.9278C10.5523 12.4893 10.5031 12.0508 10.3139 11.6124C10.34 11.5324 10.1985 11.3262 10.2246 11.2462C10.3323 11.4154 10.4969 11.4016 10.5339 11.2462C10.4323 10.9093 10.2739 10.5862 10.0154 10.4462C9.80309 10.2585 9.49232 10.297 9.37848 10.6878C9.32617 11.137 9.54156 11.6724 9.86771 12.1078C9.93694 12.2785 10.0354 12.5616 9.99232 12.817C9.81848 12.9154 9.64309 12.8754 9.49848 12.7216C9.49848 12.7216 9.02002 12.3631 9.02002 12.2831C9.14771 11.4708 9.04925 11.3785 8.97848 11.1539C8.92925 10.8431 8.78156 10.7431 8.66156 10.5308C8.54156 10.4047 8.38002 10.4047 8.30309 10.5308C8.09079 10.897 8.18925 11.6847 8.34309 12.037C8.45233 12.3601 8.62156 12.5647 8.54156 12.5647C8.4754 12.7478 8.34002 12.7047 8.24156 12.4939C8.10002 12.057 8.07232 11.4062 8.07232 11.1124C8.02925 10.7493 7.98309 9.97237 7.74463 9.77545C7.59848 9.57699 7.38156 9.67237 7.30617 9.85545C7.29079 10.2154 7.28771 10.577 7.32925 10.9108C7.49232 11.4939 7.54463 12.0078 7.62463 12.6062C7.64617 13.4078 7.16156 12.9539 7.18309 12.557C7.2954 12.0416 7.26617 11.2293 7.16617 11.0231C7.08771 10.8185 6.99386 10.7662 6.80309 10.8001C6.65232 10.7878 6.26156 11.2154 6.15079 11.9231C6.15079 11.9231 6.05694 12.2878 6.01694 12.6124C5.96309 12.9785 5.72309 13.237 5.55386 12.5616C5.40771 12.0708 5.31848 10.8601 5.07386 11.1431C5.00309 12.0893 4.91848 13.7539 5.72156 13.9231Z" fill="white"/>
<path d="M7.1846 14.6139C6.3846 14.6293 5.21383 15.6647 5.18152 16.2385C6.0246 15.8324 6.85383 15.4416 7.71229 15.0231C7.57383 14.8154 7.7046 14.6293 7.1846 14.6139Z" fill="white"/>
<path d="M11.5954 17.7169C11.9661 16.4816 11.5354 15.5708 11.7369 15.5754C12.1631 16.0354 12.76 15.6369 12.8908 15.4769C12.9477 15.3969 13.0877 15.3446 13.1861 15.4493C13.52 15.6893 14.1077 15.5754 14.2292 15.1539C14.3 14.7416 14.3569 14.3139 14.3708 13.8723C14.0984 13.9569 13.8954 14.0139 13.8769 14.1262L13.82 14.4923C13.7969 14.6108 13.5615 14.6154 13.5523 14.4646C13.4492 13.9954 13.0215 13.9339 12.7631 14.6616C12.5892 14.8031 12.2754 14.8308 12.2415 14.62C12.2831 14.1323 12.0861 14.0662 11.6923 14.2954C11.5661 13.3277 11.4384 12.4031 11.3123 11.4354C11.4769 11.4308 11.6277 11.5523 11.7769 11.3646C11.6123 10.8523 11.2646 9.80618 11.0723 9.73079C10.9784 9.61695 10.8984 9.68772 10.7769 9.71695C10.5708 9.7831 10.3784 9.96156 10.4384 10.3077C10.6831 11.7923 10.8431 12.9231 11.0861 14.4077C11.1231 14.5816 10.9784 14.8108 10.7908 14.7877C10.4723 14.5723 10.3923 14.1354 9.84768 14.1539C9.45229 14.1585 9.00153 14.5862 8.94614 15C8.87999 15.3277 8.85691 15.6846 8.94614 15.9723C9.22306 16.3046 9.55691 16.2723 9.84768 16.1969C10.0861 16.0985 10.2846 15.8585 10.3677 15.9154C10.4246 15.9846 10.3815 16.7739 9.24152 17.38C8.55076 17.6893 8.00152 17.76 7.70614 17.1969C7.52306 16.8446 7.71999 15.5062 7.26922 15.8169C5.93537 19.2554 10.3923 19.7323 10.8908 15.9585C10.9384 15.8031 11.1261 15.6477 11.1584 15.9016C11.0554 19.32 7.71076 19.5554 7.14306 18.48C7.00153 18.2262 6.95999 17.6631 6.94614 17.3246C6.86153 16.6523 6.50922 16.9108 6.45383 17.5769C6.39691 17.9477 6.41229 18.0523 6.41229 18.4077C6.58922 21.1077 10.8969 19.9477 11.5954 17.7169ZM9.93383 15.3816C9.90614 15.4339 9.7846 15.4123 9.69537 15.4123C9.59383 15.4077 9.54614 15.3908 9.4846 15.3093C9.45691 15.2169 9.54306 15.1293 9.58153 15.06C9.62922 14.9785 9.88614 14.8939 9.97691 15.1216C10.0169 15.2246 9.98152 15.3308 9.93383 15.3816Z" fill="white"/>
<path d="M12.9262 12.3216C13.1938 12.2231 14.4631 10.7723 14.4631 10.7723C14.3969 10.7154 14.3385 10.6739 14.2723 10.617C14.2015 10.5554 14.2092 10.4939 14.2723 10.4339C14.5862 10.2508 14.4862 9.84926 14.3215 9.66618C14.0492 9.5431 13.8123 9.5831 13.6385 9.67233C13.4185 9.8831 13.3662 10.2216 13.54 10.4339C13.7092 10.5139 13.8785 10.6846 13.7662 10.7785C13.2477 11.3323 11.8262 12.2877 11.9908 12.3216C12.0262 12.3677 12.8985 12.3662 12.9262 12.3216ZM13.8662 10.0431C13.9477 10.0231 14.0523 10.0954 14.1015 10.2031C14.1508 10.3108 14.1246 10.4139 14.0446 10.4339H14.0415C13.9615 10.4539 13.8569 10.3816 13.8077 10.2739C13.76 10.1646 13.7862 10.0631 13.8662 10.0431ZM5.63385 18.8585C5.42461 19.2846 5.33692 18.9923 5.31846 18.7539C5.28615 18.3016 5.32923 17.8846 5.37846 17.5554C5.43077 17.2169 5.37846 17.32 5.27077 17.457C4.79538 18.2139 4.75385 19.3462 5.01692 19.6831C5.15538 19.8431 5.38461 19.9139 5.55538 19.8616C5.85384 19.7323 5.98461 19.1262 5.91384 18.9062C5.81231 18.7508 5.73385 18.7262 5.63385 18.8585ZM21.2969 10.8462C21.8446 11.5816 22.3646 12.3308 22.8738 13.0939C22.9738 13.7554 23.0462 14.4016 23.0892 15.0431C23.1738 16.28 23.1985 17.6185 23.1215 18.9216C23.3523 18.9308 23.7262 18.5462 23.8554 17.9846C23.94 17.2077 23.8246 15.8246 23.8169 15.3662C23.8092 15.1216 23.7938 14.8216 23.7754 14.5046C24.3815 15.4954 24.9723 16.5323 25.5492 17.6846C25.76 17.5862 25.7138 16.4077 25.5908 16.2416C25.1292 15.2523 24.4938 14.2739 24.2908 13.8985C24.2154 13.76 23.9585 13.3662 23.6523 12.9154C23.6046 12.3985 23.5569 11.98 23.5231 11.8416C23.4277 11.1831 23.7954 11.9139 23.7446 11.5308C23.6262 10.8723 23.26 10.4277 22.8323 9.82464C22.6938 9.62926 22.6985 9.58926 22.4846 9.87233C22.3954 10.0739 22.3785 10.2477 22.3831 10.4123C22.3277 10.3308 22.2662 10.2462 22.1692 10.1277C21.7985 9.80926 21.7769 9.7908 21.4692 9.5308C21.3138 9.42003 20.9354 9.22003 20.8677 9.55233C20.8338 9.84618 20.8523 10.0046 20.9015 10.2508C20.9415 10.4154 21.18 10.6893 21.2969 10.8462ZM22.4354 10.8093C22.4646 10.937 22.4954 11.0646 22.5154 11.1954L22.5385 11.32C22.4477 11.197 22.3723 11.0954 22.3369 11.0554C22.0846 10.757 22.2938 10.8216 22.4354 10.8093Z" fill="white"/>
<path d="M25.7215 17.9893C25.1861 18.5477 24.4138 19.2354 23.5738 19.5539C23.483 19.6554 23.7984 20.0908 24.2046 20.0908C24.8861 20.0108 25.4861 19.6277 26.0415 18.62C26.1907 18.3862 26.4523 17.8831 26.4584 17.4924C26.5092 15.2062 26.3446 13.4262 26.0015 11.7739C25.9784 11.6139 25.9923 11.4247 26.0199 11.3754C26.063 11.3231 26.2138 11.3754 26.2938 11.2462C26.4092 11.1262 25.9846 10.1416 25.7415 9.76312C25.6553 9.59389 25.6261 9.48004 25.483 9.78312C25.3323 10.0293 25.2323 10.4585 25.2446 10.8585C25.5692 13.1093 25.6692 15.08 25.8815 17.3308C25.8984 17.5477 25.8661 17.8647 25.7215 17.9893ZM34.6907 12.2816C34.6676 12.1216 34.5969 11.7493 34.6246 11.7016C34.6676 11.5877 34.8907 11.7139 34.9707 11.5831C35.0876 11.4647 34.3953 10.5754 34.1538 10.197C34.0661 10.0277 34.0369 9.91389 33.8938 10.217C33.743 10.4631 33.6907 10.9047 33.7507 11.2924C34.1123 13.737 34.3815 15.5739 34.4369 17.7416C34.4046 17.9477 34.3984 18.0585 34.3015 18.317C34.0876 18.5908 33.8523 18.9324 33.6292 19.0985C33.4076 19.2631 32.9353 19.4216 32.7799 19.5431C32.2923 19.8277 32.2907 20.1524 32.6876 20.1631C33.3676 20.0831 34.1738 20.0277 34.7292 19.1877C34.8784 18.9539 35.0553 18.3185 35.063 17.9277C35.1138 15.6416 35.0338 13.9339 34.6907 12.2816ZM29.5353 14.1847C29.5415 13.8708 29.5707 13.4554 29.5876 13.1954C29.5953 13.0985 29.6184 12.9893 29.7107 12.9647C29.8046 12.94 29.9707 13.06 29.9723 12.9585C29.9538 12.76 29.9138 12.4647 29.8015 12.3247C29.6476 12.097 29.2399 12.1524 29.1676 12.5093C29.1692 12.6416 29.2292 12.7124 29.2184 12.8324C29.1999 12.9 29.1292 12.9462 28.9615 12.8662C28.9892 12.8416 28.8523 12.6524 28.8523 12.6524C28.7215 12.5724 28.5461 12.657 28.4338 12.7293C28.3707 12.8431 28.3261 13.0385 28.3969 13.237C28.5815 13.5862 29.2261 14.1785 29.5353 14.1847Z" fill="white"/>
<path d="M29.3185 11.5093C29.7692 12.0616 30.2292 12.6216 30.6923 13.1908C30.7923 14.4616 30.8185 15.5016 30.9169 16.7724C30.9031 17.3108 30.7369 17.78 30.5785 17.8477C30.5785 17.8477 30.34 17.9862 30.18 17.8339C30.0631 17.7862 29.5969 17.057 29.5969 17.057C29.3585 16.8385 29.2015 16.9 29.0323 17.057C28.5646 17.5077 28.3538 18.3539 28.0369 18.9354C27.9538 19.0662 27.7231 19.177 27.4662 18.9262C26.8154 18.0354 27.1969 16.7693 27.1169 17.0954C26.5369 17.7493 26.7923 18.8308 26.9231 19.0647C27.1138 19.4462 27.2692 19.6924 27.6415 19.8816C27.98 20.1308 28.2446 19.9739 28.3892 19.8C28.7308 19.4447 28.7354 18.5447 28.8954 18.3631C29.0062 18.0354 29.2908 18.0908 29.4277 18.237C29.5615 18.4277 29.7185 18.5508 29.9123 18.657C30.2308 18.9385 30.6108 18.9893 30.9846 18.7324C31.24 18.5893 31.4077 18.4031 31.5569 18.0354C31.7231 17.5924 31.6323 15.5554 31.5985 14.3339C31.8369 14.6416 32.0692 14.9631 32.3046 15.2847C32.4077 16.3047 32.4662 17.32 32.4323 18.357C32.4077 18.5647 33.1554 17.7416 33.1492 17.3508C33.1462 17.0354 33.1492 16.7493 33.1492 16.48C33.5092 17.0216 33.86 17.5801 34.1892 18.1708C34.3954 18.0631 34.3277 16.9016 34.1969 16.7416C33.8169 16.1047 33.3108 15.4416 32.9615 14.9677C32.9385 14.9077 32.9262 14.84 32.8985 14.7831C32.7585 14.4585 32.8462 14.197 32.78 13.8524C32.7154 13.5062 32.7323 12.9893 32.6323 12.5785C32.6046 12.4185 32.5215 11.9047 32.5462 11.857C32.5862 11.7416 32.74 11.86 32.8154 11.7277C32.9277 11.6047 32.4262 10.3047 32.1708 9.93236C32.0785 9.7662 31.9123 9.82313 31.7062 10.0939C31.5169 10.2724 31.5877 10.6785 31.66 11.0647C31.84 12.0001 31.9908 12.897 32.12 13.7847C31.8723 13.4539 31.5723 13.0631 31.2815 12.6877L31.2692 12.62C31.2692 12.6031 31.2277 11.8139 31.1908 11.6262C31.1846 11.5508 31.1662 11.5277 31.2462 11.537C31.3308 11.6077 31.3415 11.6124 31.3954 11.637C31.4815 11.6524 31.5569 11.5062 31.5062 11.3724L30.7108 9.90774C30.6477 9.84466 30.5646 9.77697 30.4646 9.92467C30.3677 10.0093 30.2646 10.1631 30.2677 10.36C30.2923 10.7062 30.3523 11.06 30.3754 11.4077L30.4092 11.5954C30.3738 11.5539 30.3308 11.5016 30.3123 11.4831C29.6369 10.7724 30.6231 11.3677 30.1831 10.8185C29.8108 10.4093 29.7031 10.2816 29.3831 10.0354C29.2231 9.93236 29.1262 9.73543 29.0738 10.0708C29.0538 10.3647 29.0323 10.7077 29.0508 10.9554C29.0508 11.097 29.1938 11.3554 29.3185 11.5093ZM15.6246 13.1693C16.0123 13.3293 16.26 12.5908 16.42 11.7816C16.5277 11.5539 16.6108 11.5293 16.6662 11.6462C16.6523 12.7231 16.7431 12.9616 17.02 13.2893C17.6369 13.7662 18.1477 13.3493 18.1892 13.3093L18.6692 12.8293C18.7754 12.717 18.9185 12.7093 19.0692 12.8093C19.2169 12.9416 19.1969 13.1724 19.5108 13.3324C19.7754 13.4385 20.3415 13.357 20.4723 13.1293C20.6492 12.8277 20.6923 12.7231 20.7723 12.6093C20.8985 12.4416 21.1138 12.517 21.1138 12.5693C21.0938 12.6631 20.9677 12.757 21.0538 12.9247C21.2046 13.037 21.2385 12.9647 21.3277 12.94C21.6415 12.7893 21.8754 12.1093 21.8754 12.1093C21.8892 11.8554 21.7477 11.877 21.6554 11.9293C21.5354 12.0016 21.5277 12.0262 21.4077 12.1C21.2538 12.1231 20.9569 12.2247 20.8108 11.997C20.66 11.7231 20.6569 11.3416 20.5431 11.0662C20.5431 11.0462 20.3431 10.6308 20.5292 10.6047C20.6231 10.6216 20.8215 10.6739 20.8538 10.5077C20.9508 10.3447 20.6431 9.88005 20.4338 9.64467C20.2508 9.44467 19.9969 9.42005 19.7523 9.62466C19.58 9.78313 19.6046 9.95851 19.5708 10.1262C19.5277 10.317 19.5369 10.5539 19.7323 10.8077C19.9031 11.1447 20.2154 11.58 20.1123 12.1893C20.1123 12.1893 19.9308 12.4785 19.6123 12.4416C19.48 12.4124 19.2646 12.3554 19.1508 11.5093C19.0646 10.8677 19.1723 9.97082 18.9 9.55082C18.8015 9.29697 18.7308 9.05236 18.4908 9.4862C18.4262 9.65697 18.1492 9.91543 18.3508 10.4493C18.5154 10.7862 18.5815 11.3354 18.5077 11.9477C18.3938 12.1216 18.3692 12.18 18.22 12.3539C18.0108 12.5785 17.7846 12.5216 17.6108 12.437C17.4477 12.3277 17.3215 12.2708 17.2477 11.9231C17.2615 11.3693 17.2923 10.4616 17.1908 10.2693C17.0415 9.97082 16.7954 10.0785 16.6892 10.1693C16.1831 10.6324 15.9338 11.4124 15.7815 12.0324C15.6415 12.4847 15.4923 12.3554 15.3877 12.1724C15.1323 11.9324 15.1154 10.06 14.8062 10.3693C14.3092 11.7754 15.0862 13.3201 15.6246 13.1693Z" fill="white"/>
<path d="M22.9799 16.1908L22.8322 16.1062L19.9384 16.0923C19.7892 16.0354 19.8338 15.9862 19.9384 15.9462C20.6292 15.8523 21.8584 15.6523 21.9399 14.4723C21.9261 13.8585 21.6753 13.4554 20.9215 13.3446C20.3692 13.3877 19.9738 13.9246 20.0369 14.5139C20.0107 14.6739 20.0892 14.9846 19.9276 15.02C18.8646 15.117 17.7061 15.7816 17.6676 16.2585C17.603 16.3031 17.4584 16.1739 17.4769 15.9708C17.4369 15.1477 17.1661 14.217 16.7461 13.5C16.4107 13.1646 16.5153 13.2754 16.2907 13.4339C16.1461 13.6 16.1199 13.7139 16.1276 14.0446C16.1276 14.057 16.3984 14.8123 16.6276 15.3416C16.7799 15.8846 16.923 16.5046 16.8199 17.0908C16.463 17.8662 15.7446 18.5616 15.0522 18.9385C14.6953 19.0539 14.3892 19.0123 14.3138 18.9323C14.0938 18.7846 14.1046 18.5123 14.1215 18.5077C14.7046 18.1 15.3722 17.7723 15.8953 16.6754C16.0492 16.257 16.0953 16.0031 15.943 15.3554C15.883 15.1123 15.8061 14.9154 15.6399 14.7431C15.7338 14.6816 16.003 14.8862 16.0446 14.7646C15.983 14.4539 15.7722 14.0385 15.5353 13.8262C15.3276 13.637 15.1015 13.6154 14.9107 13.7893C14.6953 13.9093 14.6492 14.337 14.7522 14.7123C14.8661 14.9954 15.1753 15.0431 15.3969 15.6108C15.3969 15.6231 15.4769 16.0354 15.363 16.197C15.2722 16.48 14.0953 17.4046 14.0307 17.4462C13.9984 17.4862 14.0122 17.4262 14.0076 17.2723C13.9999 17.0846 14.083 16.6416 14.0599 16.6385C13.6769 16.8862 13.5492 17.6446 13.4799 17.8693C12.5107 18.5385 11.4138 19.037 10.7799 19.717C10.4492 20.2323 13.0538 19.1246 13.3569 18.9908C13.4246 19.04 13.4169 19.2723 13.5984 19.48C13.8692 19.8462 14.4415 20.0723 15.003 19.9323C15.9415 19.5923 16.4846 18.9523 17.0353 18.2431C17.1138 18.1277 17.2369 18.04 17.3507 18.1277C17.7292 18.9754 18.823 19.5754 20.2338 19.6385C20.5615 19.24 20.403 19.0477 20.2707 18.9646C20.2707 18.9523 19.5738 18.6877 19.4676 18.4231C19.403 18.1831 19.5599 17.9723 19.8738 17.8123C20.7799 17.7031 21.6707 17.5816 22.5338 17.3046C22.543 17.0154 22.7107 16.5816 22.8261 16.3939C22.9369 16.2031 22.9969 16.26 22.9799 16.1908ZM20.5999 14.3877C20.643 14.3154 20.7861 14.3185 20.9199 14.397C21.0538 14.4739 21.1292 14.597 21.0846 14.6693C21.0415 14.7431 20.8969 14.7385 20.763 14.66C20.6292 14.5831 20.5569 14.4616 20.5999 14.3877ZM19.4353 17.3108C19.1246 17.417 18.8261 17.5 18.8261 17.9493C18.9415 18.5739 18.6676 18.36 18.5061 18.2739C18.3153 18.137 17.7784 17.8062 17.7015 17.0923C17.6892 16.9216 17.823 16.7785 18.0369 16.7785C18.3584 16.8662 18.8338 16.8723 19.2461 16.9154C19.583 16.937 19.7507 17.2016 19.4353 17.3108ZM8.71686 10.38C9.04917 10.54 9.67686 10.4723 9.64917 9.93388C9.64917 9.88618 9.63686 9.72618 9.63225 9.68311C9.56456 9.52464 9.37994 9.56311 9.33686 9.72772C9.32302 9.78157 9.35994 9.86772 9.31225 9.89541C9.28456 9.92311 9.1784 9.90618 9.18302 9.75849C9.18302 9.7108 9.14763 9.66003 9.12763 9.6308C9.1061 9.61695 9.09379 9.61234 9.05533 9.61234C9.00917 9.61388 9.00917 9.62618 8.98456 9.66618C8.97379 9.70464 8.9584 9.74464 8.9584 9.78926C8.95225 9.84157 8.93225 9.86003 8.89379 9.86926C8.85071 9.86926 8.85994 9.87388 8.82609 9.8508C8.80456 9.82772 8.7784 9.81849 8.7784 9.78003C8.7784 9.74003 8.76917 9.67541 8.75686 9.64772C8.7384 9.62311 8.70917 9.61234 8.67532 9.60311C8.49379 9.60311 8.48148 9.8108 8.49225 9.8908C8.47533 9.90464 8.46917 10.277 8.71686 10.38Z" fill="white"/>
<path d="M18.9415 13.8877C18.9415 13.84 18.9061 13.7908 18.8861 13.76C18.8646 13.7462 18.8522 13.7416 18.8138 13.7416C18.7676 13.7431 18.7692 13.7554 18.743 13.7954C18.7322 13.8354 18.7169 13.8739 18.7169 13.9185C18.7122 13.9723 18.6907 13.9908 18.6522 13.9985C18.6092 13.9985 18.6184 14.0031 18.583 13.9816C18.5615 13.9585 18.5353 13.9493 18.5353 13.9108C18.5353 13.8708 18.5261 13.8047 18.5138 13.7785C18.4953 13.7539 18.4661 13.7431 18.4322 13.7354C18.2507 13.7354 18.2384 13.9431 18.2476 14.0216C18.2338 14.037 18.2261 14.4077 18.4738 14.5123C18.8076 14.6708 19.5999 14.5785 19.4061 14.0662C19.4061 14.0185 19.3938 13.8585 19.3892 13.8139C19.3215 13.6554 19.1353 13.6954 19.0938 13.8585C19.0815 13.9123 19.1184 13.9985 19.0692 14.0262C19.0446 14.0539 18.9369 14.037 18.9415 13.8877ZM24.1676 12.8C24.4999 12.96 25.1261 12.8923 25.0984 12.3554C25.0984 12.3077 25.0861 12.1477 25.0815 12.1031C25.0138 11.9446 24.8292 11.9846 24.7876 12.1477C24.7738 12.2016 24.8107 12.2877 24.7615 12.3154C24.7338 12.3431 24.6276 12.3277 24.6322 12.1785C24.6322 12.1308 24.5969 12.08 24.5769 12.0508C24.5553 12.037 24.543 12.0323 24.503 12.0323C24.4569 12.0354 24.4584 12.0462 24.4322 12.0862C24.4215 12.1262 24.4061 12.1646 24.4061 12.2093C24.3999 12.2631 24.3799 12.2816 24.3415 12.2893C24.2984 12.2893 24.3076 12.2939 24.2722 12.2723C24.2507 12.2493 24.2261 12.24 24.2261 12.2016C24.2261 12.1616 24.2169 12.0954 24.2046 12.0677C24.1846 12.0431 24.1569 12.0323 24.1215 12.0246C23.9399 12.0246 23.9276 12.2323 23.9384 12.3108C23.9276 12.3262 23.9199 12.697 24.1676 12.8ZM24.3922 10.72C24.5107 11.0523 24.3015 11.3693 24.4261 11.4154C24.5384 11.4677 24.6984 11.0723 24.7569 10.7077C24.8261 10.4123 24.6153 9.80773 24.3169 9.68311C24.1353 9.64003 23.8769 9.74773 23.9599 9.9908C23.9184 10.1077 24.3261 10.5047 24.3922 10.72ZM27.4615 18.5108C27.6938 18.5123 27.9615 17.98 28.0753 17.4523C28.1384 16.7262 28.0322 16.2846 28.0138 15.857C27.9938 15.4308 27.5322 12.177 27.4369 11.8539C27.3246 11.2431 27.8876 11.7723 27.8261 11.417C27.6307 10.9693 27.1461 10.3185 26.9922 9.92927C26.8999 9.76311 26.9399 9.61542 26.7338 9.88619C26.5446 10.5093 26.4784 11.017 26.5507 11.4047C27.0399 13.9585 27.5415 16.0816 27.4615 18.5108ZM33.2399 11.8339C33.2938 12 33.1584 12.537 33.2707 12.5862C33.3738 12.6416 33.5184 12.2154 33.5722 11.82C33.6015 11.6031 33.443 10.8462 33.1707 10.7108C33.0046 10.6646 32.7692 10.78 32.8461 11.0446C32.8076 11.1723 33.1799 11.6 33.2399 11.8339ZM13.0569 17.4585C13.1569 17.5 13.2938 17.1862 13.3461 16.8954C13.3753 16.7354 13.2215 16.18 12.9615 16.08C12.8015 16.0462 12.583 16.0893 12.6507 16.3262C12.643 16.4539 13.0046 16.6077 13.0261 16.9046C13.0784 17.0277 12.9492 17.4231 13.0569 17.4585ZM6.04763 10.3585C6.0984 10.4862 5.99686 10.8939 6.10302 10.9323C6.19994 10.9754 6.33686 10.6493 6.38763 10.3493C6.41686 10.1831 6.39379 9.62004 6.00917 9.50465C5.85071 9.46927 5.63071 9.55696 5.70302 9.7585C5.66609 9.85388 5.99071 10.18 6.04763 10.3585ZM13.5892 12.1631C13.2953 12.3231 13.1799 12.797 13.3646 13.0723C13.5353 13.317 13.8061 13.2262 13.843 13.2262C14.1322 13.2616 14.303 12.6846 14.303 12.6846C14.303 12.6846 14.3122 12.5231 13.9692 12.8293C13.8246 12.857 13.8061 12.8031 13.7707 12.72C13.7399 12.5708 13.7461 12.42 13.8153 12.2708C13.8646 12.1277 13.7538 12.0647 13.5892 12.1631ZM15.8076 10.3893C15.9169 10.3093 15.9538 10.257 15.9892 10.1216C16.0338 9.89696 15.7507 10.2277 15.7153 9.97696C15.6522 9.74465 15.8338 9.64927 16.0061 9.42465C16.0122 9.26927 16.0092 9.16004 15.7984 9.28619C15.6507 9.38619 15.3553 9.6908 15.3461 10.0416C15.3369 10.24 15.2999 10.2385 15.4307 10.3647C15.5246 10.5016 15.6184 10.4877 15.8076 10.3893ZM17.8061 10.5093C17.9969 9.99234 17.9969 9.77388 18.0107 9.55388C17.9522 9.22003 17.7261 9.2308 17.5769 9.60157C17.5122 9.74157 17.4369 10.4785 17.4492 10.4785C17.3984 10.6985 17.6784 10.7923 17.8061 10.5093ZM30.3753 14.1754C30.3753 14.1754 28.8322 15.2723 28.7953 15.3108C28.6415 15.4462 28.7184 15.9262 28.7953 15.8708C28.9046 15.9139 30.4569 14.86 30.4261 14.737C30.4984 14.74 30.5338 14.12 30.3753 14.1754ZM30.1861 17.1508C30.2892 17.2062 30.5615 16.8693 30.5507 16.4493C30.5815 16.2323 30.4722 15.437 30.2015 15.3016C30.0353 15.2554 29.8138 15.397 29.8907 15.66C29.8522 15.7862 30.0815 16.2277 30.1415 16.4616C30.1953 16.6293 30.0738 17.1016 30.1861 17.1508ZM21.4476 19.4523C21.4476 19.4662 21.5784 19.5785 21.7322 19.4893C22.0553 19.3646 22.2584 19.2446 22.7107 19.1446C22.8292 19.1431 22.8215 18.8246 22.6338 18.8139C22.3892 18.8262 22.1615 18.8385 21.9169 19.0323C21.7661 19.0662 21.7415 18.9754 21.7076 18.8923C21.6707 18.6877 21.7922 18.5462 21.7661 18.3939C21.7753 18.4031 21.6261 18.2662 21.4738 18.3431C21.4661 18.3431 21.1338 18.5677 21.0276 18.7246C20.9615 18.7754 20.9692 18.8185 20.9892 18.9031C21.0399 19.02 21.1307 18.9847 21.2322 18.9293C21.3676 18.9108 21.4322 19 21.4215 19.1616C21.3569 19.3662 21.4476 19.4416 21.4476 19.4523ZM31.5261 19.7077C31.4753 19.7954 31.4415 19.9277 31.5984 19.9693C31.8876 20.0508 32.5538 19.617 32.5538 19.6093C32.6615 19.5277 32.6261 19.3754 32.6169 19.3754C32.5538 19.3031 32.4122 19.3446 32.3169 19.3339C32.2722 19.3339 32.1215 19.3108 32.1938 19.1785C32.2522 19.097 32.2738 19.0462 32.3138 18.9462C32.3584 18.8462 32.3199 18.78 32.1569 18.7262C31.9922 18.6954 31.9261 18.7108 31.743 18.7262C31.6446 18.7477 31.6107 18.7908 31.5922 18.9108C31.5999 19.0923 31.7092 19.0831 31.823 19.1554C31.8892 19.24 31.9322 19.317 31.8184 19.4539C31.7107 19.5539 31.6353 19.6093 31.5261 19.7077ZM31.2307 27.6923H28.923V26.9231C28.923 26.4985 28.5784 26.1539 28.1538 26.1539C27.7292 26.1539 27.3846 26.4985 27.3846 26.9231V27.6923H8.92302C8.92302 27.6923 8.92302 29.2308 13.5384 29.2308H27.3846V30C27.3846 30.4246 27.7292 30.7693 28.1538 30.7693C28.5784 30.7693 28.923 30.4246 28.923 30V29.2308H30.4615V30C30.4615 30.4246 30.8061 30.7693 31.2307 30.7693C31.6553 30.7693 31.9999 30.4246 31.9999 30V28.4616C31.9999 28.037 31.6553 27.6923 31.2307 27.6923Z" fill="white"/>
</g>
</g>
<defs>
<clipPath id="clip0_892_26573">
<rect width="40" height="40" rx="20" fill="white"/>
</clipPath>
<clipPath id="clip1_892_26573">
<rect width="55.3846" height="40" fill="white" transform="translate(-8)"/>
</clipPath>
</defs>
</svg>