<svg xmlns="http://www.w3.org/2000/svg" width="40" height="40" viewBox="0 0 40 40" fill="none">
<g clip-path="url(#clip0_892_27199)">
<g clip-path="url(#clip1_892_27199)">
<path d="M50.3846 33.8462C50.3846 37.2446 47.6292 40 44.2308 40H1.15385C-2.24462 40 -5 37.2446 -5 33.8462V6.15385C-5 2.75538 -2.24462 0 1.15385 0H44.2308C47.6292 0 50.3846 2.75538 50.3846 6.15385V33.8462Z" fill="#E30917"/>
<path d="M19.6154 29.2307C14.517 29.2307 10.3847 25.0999 10.3847 19.9999C10.3847 14.9015 14.517 10.7692 19.6154 10.7692C21.6308 10.7692 23.4924 11.423 25.0108 12.5199C22.937 10.1753 19.9154 8.68762 16.5385 8.68762C10.2908 8.68762 5.2262 13.7522 5.2262 19.9999C5.2262 26.2492 10.2908 31.3138 16.5385 31.3138C19.9154 31.3138 22.9385 29.8261 25.0108 27.4799C23.4939 28.5769 21.6339 29.2307 19.6154 29.2307ZM25.6354 20.3538L29.3893 21.2184L29.7277 25.0538L31.7093 21.7522L35.4631 22.6153L32.9339 19.7107L34.9139 16.4076L31.3708 17.9153L28.8416 15.0092L29.18 18.8461L25.6354 20.3538Z" fill="#EEEEEE"/>
</g>
</g>
<defs>
<clipPath id="clip0_892_27199">
<rect width="40" height="40" rx="20" fill="white"/>
</clipPath>
<clipPath id="clip1_892_27199">
<rect width="55.3846" height="40" fill="white" transform="translate(-5)"/>
</clipPath>
</defs>
</svg>