<svg xmlns="http://www.w3.org/2000/svg" width="40" height="40" viewBox="0 0 40 40" fill="none">
<g clip-path="url(#clip0_892_26996)">
<g clip-path="url(#clip1_892_26996)">
<path d="M46.5308 3.07692C45.4646 1.24462 43.5031 0 41.2308 0H19.6923V3.07692H46.5308ZM-8 30.7692H47.3846V33.8462H-8V30.7692ZM19.6923 18.4615H47.3846V21.5385H19.6923V18.4615ZM19.6923 12.3077H47.3846V15.3846H19.6923V12.3077ZM-8 24.6154H47.3846V27.6923H-8V24.6154ZM-1.84615 40H41.2308C43.5031 40 45.4646 38.7554 46.5308 36.9231H-7.14615C-6.08 38.7554 -4.11846 40 -1.84615 40ZM19.6923 6.15385H47.3846V9.23077H19.6923V6.15385Z" fill="#B22334"/>
<path d="M-7.89538 34.8908C-7.86923 35.0338 -7.84 35.1769 -7.80462 35.3169C-7.76462 35.4723 -7.71538 35.6215 -7.66308 35.7723C-7.52615 36.1708 -7.36 36.5554 -7.15077 36.9154L-7.14615 36.9231H46.5308L46.5338 36.9169C46.7415 36.5584 46.9077 36.1738 47.0446 35.7769C47.0969 35.6246 47.1477 35.4723 47.1877 35.3138C47.2231 35.1754 47.2523 35.0338 47.2785 34.8908C47.3415 34.5523 47.3846 34.2046 47.3846 33.8461H-8C-8 34.2046 -7.95692 34.5508 -7.89538 34.8908ZM-8 27.6923H47.3846V30.7692H-8V27.6923ZM-8 21.5384V24.6154H47.3846V21.5384H19.6923H-8ZM19.6923 15.3846H47.3846V18.4615H19.6923V15.3846ZM19.6923 9.23075H47.3846V12.3077H19.6923V9.23075ZM-8 6.15383C-8 5.79537 -7.95385 5.45075 -7.89538 5.10921C-7.95692 5.44921 -8 5.79537 -8 6.15383ZM-7.80308 4.68306C-7.76462 4.52613 -7.71077 4.3769 -7.66154 4.22614C-7.71385 4.3769 -7.76308 4.52767 -7.80308 4.68306ZM19.6923 6.15383H47.3846C47.3846 5.79537 47.3415 5.44767 47.2785 5.10767C47.2523 4.96613 47.2246 4.8246 47.1877 4.68613C47.1462 4.52767 47.0969 4.37383 47.0431 4.22152C46.9062 3.8246 46.74 3.44152 46.5323 3.08306C46.5338 3.08152 46.5323 3.07844 46.5308 3.0769H19.6923V6.15383Z" fill="#EEEEEE"/>
<path d="M19.6923 0H-1.84615C-5.24462 0 -8 2.75538 -8 6.15385V21.5385H19.6923V0Z" fill="#3C3B6E"/>
<path d="M-4.92154 4.19383L-3.97077 4.8846L-4.33385 5.99998L-3.38462 5.31075L-2.43385 5.99998L-2.79692 4.8846L-1.84615 4.19383H-3.02154L-3.38462 3.0769L-3.74615 4.19383H-4.92154ZM-1.84462 7.27075L-0.893847 7.96152L-1.25692 9.0769L-0.307693 8.38767L0.643076 9.0769L0.279999 7.96152L1.23077 7.27075H0.0553842L-0.307693 6.15383L-0.669231 7.27075H-1.84462ZM4.30923 7.27075L5.26 7.96152L4.89692 9.0769L5.84615 8.38767L6.79692 9.0769L6.43385 7.96152L7.38461 7.27075H6.20923L5.84615 6.15383L5.48462 7.27075H4.30923ZM10.4631 7.27075L11.4138 7.96152L11.0508 9.0769L12 8.38767L12.9508 9.0769L12.5877 7.96152L13.5385 7.27075H12.3631L12 6.15383L11.6385 7.27075H10.4631ZM-1.84462 13.4246L-0.893847 14.1154L-1.25692 15.2307L-0.307693 14.5415L0.643076 15.2307L0.279999 14.1154L1.23077 13.4246H0.0553842L-0.307693 12.3077L-0.669231 13.4246H-1.84462ZM4.30923 13.4246L5.26 14.1154L4.89692 15.2307L5.84615 14.5415L6.79692 15.2307L6.43385 14.1154L7.38461 13.4246H6.20923L5.84615 12.3077L5.48462 13.4246H4.30923ZM10.4631 13.4246L11.4138 14.1154L11.0508 15.2307L12 14.5415L12.9508 15.2307L12.5877 14.1154L13.5385 13.4246H12.3631L12 12.3077L11.6385 13.4246H10.4631ZM1.23231 4.19383L2.18308 4.8846L1.82 5.99998L2.76923 5.31075L3.72 5.99998L3.35692 4.8846L4.30769 4.19383H3.13231L2.76923 3.0769L2.40769 4.19383H1.23231ZM7.38615 4.19383L8.33692 4.8846L7.97385 5.99998L8.92308 5.31075L9.87385 5.99998L9.51077 4.8846L10.4615 4.19383H9.28615L8.92308 3.0769L8.56154 4.19383H7.38615ZM13.54 4.19383L14.4908 4.8846L14.1277 5.99998L15.0769 5.31075L16.0277 5.99998L15.6646 4.8846L16.6154 4.19383H15.44L15.0769 3.0769L14.7154 4.19383H13.54ZM-4.92154 10.3477L-3.97077 11.0384L-4.33385 12.1538L-3.38462 11.4646L-2.43385 12.1538L-2.79692 11.0384L-1.84615 10.3477H-3.02154L-3.38462 9.23075L-3.74615 10.3477H-4.92154ZM1.82 12.1538L2.76923 11.4646L3.72 12.1538L3.35692 11.0384L4.30769 10.3477H3.13231L2.76923 9.23075L2.40769 10.3477H1.23231L2.18308 11.0384L1.82 12.1538ZM7.38615 10.3477L8.33692 11.0384L7.97385 12.1538L8.92308 11.4646L9.87385 12.1538L9.51077 11.0384L10.4615 10.3477H9.28615L8.92308 9.23075L8.56154 10.3477H7.38615ZM13.54 10.3477L14.4908 11.0384L14.1277 12.1538L15.0769 11.4646L16.0277 12.1538L15.6646 11.0384L16.6154 10.3477H15.44L15.0769 9.23075L14.7154 10.3477H13.54ZM-4.92154 16.5015L-3.97077 17.1923L-4.33385 18.3077L-3.38462 17.6184L-2.43385 18.3077L-2.79692 17.1923L-1.84615 16.5015H-3.02154L-3.38462 15.3846L-3.74615 16.5015H-4.92154ZM1.82 18.3077L2.76923 17.6184L3.72 18.3077L3.35692 17.1923L4.30769 16.5015H3.13231L2.76923 15.3846L2.40769 16.5015H1.23231L2.18308 17.1923L1.82 18.3077ZM7.38615 16.5015L8.33692 17.1923L7.97385 18.3077L8.92308 17.6184L9.87385 18.3077L9.51077 17.1923L10.4615 16.5015H9.28615L8.92308 15.3846L8.56154 16.5015H7.38615ZM13.54 16.5015L14.4908 17.1923L14.1277 18.3077L15.0769 17.6184L16.0277 18.3077L15.6646 17.1923L16.6154 16.5015H15.44L15.0769 15.3846L14.7154 16.5015H13.54Z" fill="white"/>
</g>
</g>
<defs>
<clipPath id="clip0_892_26996">
<rect width="40" height="40" rx="20" fill="white"/>
</clipPath>
<clipPath id="clip1_892_26996">
<rect width="55.3846" height="40" fill="white" transform="translate(-8)"/>
</clipPath>
</defs>
</svg>